<svg width="28" height="28" viewBox="0 0 28 28" fill="none" xmlns="http://www.w3.org/2000/svg">
<g clip-path="url(#clip0_2_280)">
<path d="M12.7901 7.80131C12.7901 7.80131 10.996 6.06026 7.53904 6.60715C4.08203 7.15405 2.91296 9.36386 2.91296 9.36386L5.10054 23.1919C5.10054 23.1919 6.42586 21.9698 9.88286 21.4229C13.3399 20.876 14.9777 21.6293 14.9777 21.6293M12.7901 7.80131L14.9777 21.6293M12.7901 7.80131C12.7901 7.80131 13.9592 5.59149 17.4162 5.0446C20.8732 4.49771 22.6673 6.23876 22.6673 6.23876L24.8549 20.0668C24.8549 20.0668 23.217 19.3135 19.76 19.8604C16.303 20.4072 14.9777 21.6293 14.9777 21.6293" stroke="white" stroke-width="2" stroke-linecap="round" stroke-linejoin="round"/>
</g>
<defs>
<clipPath id="clip0_2_280">
<rect width="24" height="24" fill="white" transform="translate(0 3.75012) rotate(-8.9896)"/>
</clipPath>
</defs>
</svg>
