<svg width="32" height="32" viewBox="0 0 32 32" fill="none" xmlns="http://www.w3.org/2000/svg">
<path d="M20.505 7.28602C20.4122 7.37897 20.302 7.45271 20.1807 7.50302C20.0594 7.55333 19.9293 7.57922 19.798 7.57922C19.6667 7.57922 19.5366 7.55333 19.4153 7.50302C19.294 7.45271 19.1838 7.37897 19.091 7.28602C18.8168 7.01096 18.4909 6.79291 18.132 6.64445C17.7731 6.49598 17.3884 6.42005 17 6.42102C16.18 6.42102 15.447 6.75002 14.909 7.28602C14.8162 7.37887 14.7059 7.45252 14.5846 7.50276C14.4633 7.55301 14.3333 7.57887 14.202 7.57887C13.9368 7.57887 13.6825 7.47353 13.495 7.28602C13.4022 7.19318 13.3285 7.08296 13.2783 6.96165C13.228 6.84034 13.2022 6.71033 13.2022 6.57902C13.2022 6.31385 13.3075 6.05953 13.495 5.87202C13.955 5.41141 14.5014 5.04613 15.1029 4.79714C15.7043 4.54814 16.349 4.42033 17 4.42102C17.651 4.42033 18.2957 4.54814 18.8971 4.79714C19.4986 5.04613 20.045 5.41141 20.505 5.87202C20.6925 6.05955 20.7978 6.31386 20.7978 6.57902C20.7978 6.84419 20.6925 7.0985 20.505 7.28602ZM8.894 6.33102C8.0109 6.84748 7.212 7.49598 6.525 8.25402L6.524 8.25502C5.83521 9.01639 5.26758 9.87914 4.841 10.813C4.40338 11.7715 4.12151 12.7937 4.006 13.841C3.99155 13.9716 4.00296 14.1037 4.03957 14.2298C4.07618 14.3559 4.13727 14.4736 4.21935 14.5761C4.30144 14.6786 4.40292 14.764 4.51799 14.8273C4.63305 14.8906 4.75947 14.9306 4.89 14.945C5.02053 14.9595 5.15263 14.9481 5.27876 14.9115C5.40489 14.8748 5.52257 14.8138 5.62508 14.7317C5.7276 14.6496 5.81294 14.5481 5.87624 14.433C5.93954 14.318 5.97955 14.1916 5.994 14.061C6.08661 13.2247 6.31176 12.4085 6.661 11.643C7.34651 10.1426 8.47879 8.89047 9.903 8.05802C10.0164 7.99177 10.1156 7.90383 10.195 7.79923C10.2745 7.69463 10.3325 7.57541 10.3658 7.44837C10.3992 7.32134 10.4071 7.18899 10.3893 7.05887C10.3715 6.92876 10.3283 6.80342 10.262 6.69002C10.1957 6.57663 10.1078 6.47739 10.0032 6.39798C9.8986 6.31857 9.77938 6.26054 9.65235 6.2272C9.3958 6.15988 9.12301 6.19722 8.894 6.33102ZM24 17.5C24 17.2348 24.1054 16.9805 24.2929 16.7929C24.4804 16.6054 24.7348 16.5 25 16.5C25.2652 16.5 25.5196 16.6054 25.7071 16.7929C25.8946 16.9805 26 17.2348 26 17.5C25.9986 18.4022 25.6483 19.2689 25.0224 19.9187C24.3965 20.5684 23.5435 20.9509 22.642 20.986C22.865 21.445 23 21.955 23 22.5C23 22.7652 22.8946 23.0196 22.7071 23.2071C22.5196 23.3947 22.2652 23.5 22 23.5C21.7348 23.5 21.4804 23.3947 21.2929 23.2071C21.1054 23.0196 21 22.7652 21 22.5C20.9995 22.1024 20.8413 21.7211 20.5601 21.4399C20.2789 21.1588 19.8977 21.0006 19.5 21H13.318C13.0528 21 12.7984 20.8947 12.6109 20.7071C12.4234 20.5196 12.318 20.2652 12.318 20C12.318 19.7348 12.4234 19.4805 12.6109 19.2929C12.7984 19.1054 13.0528 19 13.318 19H15.5C15.8976 18.9992 16.2787 18.8409 16.5598 18.5598C16.8409 18.2787 16.9992 17.8976 17 17.5C17 17.2348 17.1054 16.9805 17.2929 16.7929C17.4804 16.6054 17.7348 16.5 18 16.5C18.2652 16.5 18.5196 16.6054 18.7071 16.7929C18.8946 16.9805 19 17.2348 19 17.5C19 18.039 18.868 18.544 18.65 19H22.5C22.8976 18.9992 23.2787 18.8409 23.5598 18.5598C23.8409 18.2787 23.9992 17.8976 24 17.5Z" fill="white"/>
<path d="M32 16.711C32 16.083 31.955 15.475 31.886 14.885C30.979 7.067 24.348 1.002 16.289 1H15.057C6.74 1.001 0.001 7.74 0 16.057C0 16.8374 0.15372 17.6102 0.452384 18.3313C0.751048 19.0523 1.18881 19.7075 1.74066 20.2593C2.85519 21.3739 4.36682 22 5.943 22H7.184C7.52032 23.4227 8.32684 24.6903 9.47305 25.5977C10.6193 26.505 12.0381 26.9991 13.5 27H20.604L23.72 30.116C23.8249 30.2208 23.9585 30.2921 24.1039 30.321C24.2493 30.3498 24.4 30.335 24.5369 30.2783C24.6739 30.2216 24.791 30.1255 24.8734 30.0023C24.9558 29.8791 24.9999 29.7342 25 29.586V26.917C26.5371 26.7256 27.9855 26.0914 29.1687 25.0916C30.3518 24.0919 31.2188 22.7697 31.664 21.286C31.807 20.808 31.889 20.304 31.941 19.791L31.944 19.783C31.972 19.691 32 19.6 32 19.5C32 19.439 31.996 19.378 31.992 19.318L31.985 19.203C31.985 19.171 31.989 19.14 31.992 19.11C31.996 19.073 32 19.037 32 19V16.711ZM29.748 20.715C29.3788 21.9528 28.62 23.0384 27.5844 23.8104C26.5488 24.5824 25.2917 24.9996 24 25H13.5C12.3778 24.9999 11.2961 24.5803 10.4674 23.8235C9.63869 23.0668 9.12279 22.0276 9.021 20.91L9.015 20.846C9.04843 19.5472 9.5887 18.3131 10.5203 17.4075C11.4519 16.5019 12.7008 15.9967 14 16C14.2652 16 14.5196 15.8946 14.7071 15.7071C14.8946 15.5196 15 15.2652 15 15C15 14.7348 14.8946 14.4804 14.7071 14.2929C14.5196 14.1054 14.2652 14 14 14C12.8255 13.9985 11.6697 14.2939 10.64 14.859C10.443 14.4174 10.1679 14.0149 9.828 13.671C9.64049 13.4835 9.38618 13.3782 9.121 13.3782C8.85582 13.3782 8.60151 13.4835 8.414 13.671C8.22649 13.8585 8.12115 14.1128 8.12115 14.378C8.12115 14.6432 8.22649 14.8975 8.414 15.085C8.698 15.37 8.891 15.735 8.964 16.144C7.94675 17.1997 7.2876 18.5487 7.08 20H5.943C5.42494 20.0008 4.91185 19.8991 4.43321 19.7009C3.95458 19.5027 3.51984 19.2118 3.154 18.845C2.78737 18.4793 2.49666 18.0447 2.29861 17.5662C2.10057 17.0878 1.99908 16.5748 2 16.057C2 12.448 3.46 9.19 5.824 6.824C7.035 5.60952 8.47417 4.64646 10.0587 3.99019C11.6433 3.33392 13.3419 2.99741 15.057 3H16.289C22.979 2.998 28.535 7.8 29.74 14.139C28.6381 13.0625 27.2306 12.3525 25.71 12.106C26.213 11.184 26.5 10.125 26.5 9C26.5 8.73478 26.3946 8.48043 26.2071 8.29289C26.0196 8.10536 25.7652 8 25.5 8C25.2348 8 24.9804 8.10536 24.7929 8.29289C24.6054 8.48043 24.5 8.73478 24.5 9C24.501 9.5911 24.3851 10.1766 24.1589 10.7227C23.9327 11.2688 23.6007 11.7648 23.182 12.182C22.7648 12.6007 22.2688 12.9327 21.7227 13.1589C21.1766 13.3851 20.5911 13.501 20 13.5C19.7348 13.5 19.4804 13.6054 19.2929 13.7929C19.1054 13.9804 19 14.2348 19 14.5C19 14.7652 19.1054 15.0196 19.2929 15.2071C19.4804 15.3946 19.7348 15.5 20 15.5C21.546 15.5009 23.0413 14.9482 24.215 13.942L24.231 13.947C24.3175 13.9782 24.4082 13.996 24.5 14C26.022 14 27.391 14.614 28.389 15.611C29.3472 16.5696 29.9159 17.8494 29.985 19.203C29.9708 19.715 29.8912 20.2232 29.748 20.715Z" fill="white"/>
</svg>
