<svg width="23" height="27" viewBox="0 0 23 27" fill="none" xmlns="http://www.w3.org/2000/svg">
<g clip-path="url(#clip0_2_282)">
<path d="M12.2236 22.8017L7.66213 23.119C7.33715 23.1416 7.0528 22.8942 7.03019 22.5692C7.00761 22.2443 7.25497 21.9599 7.57991 21.9373L12.1414 21.62C12.4664 21.5974 12.7507 21.8448 12.7733 22.1697C12.796 22.4947 12.5486 22.7791 12.2236 22.8017ZM12.8111 9.08806C12.6694 9.60897 12.3124 9.84862 11.8498 9.75069C11.3892 9.65323 11.1145 9.27105 11.2196 8.79097C11.3217 8.32385 11.6759 8.07293 12.1753 8.17587C12.6744 8.27866 12.8648 8.62247 12.8111 9.08806ZM18.7159 8.38945C17.546 5.20515 14.3997 3.15592 11.0458 3.46502C8.11059 3.73558 5.94271 5.21661 4.73504 7.9085C3.53971 10.5728 3.88329 13.1317 5.54463 15.5421C5.93424 16.1074 6.26567 16.7648 6.41838 17.4272C6.5715 18.0911 6.62152 18.2991 7.31554 18.2678C8.27941 18.2244 9.24085 18.1277 10.2047 18.0833C10.6988 18.0606 10.9294 17.8321 11.0189 17.3559C11.3801 15.4339 11.7582 13.515 12.1391 11.5968C12.2252 11.1625 12.1584 10.7782 11.693 10.6763C11.2218 10.5731 11.0096 10.8907 10.9273 11.3344C10.6958 12.5811 10.4458 13.8243 10.2033 15.0688C9.81332 17.071 9.81337 17.071 7.78869 16.9752C7.20731 15.9719 6.67593 15.0683 6.1573 14.1574C4.29592 10.8882 5.54235 6.83406 8.96383 5.27497C11.4219 4.15481 13.7569 4.52061 15.8149 6.27144C17.7258 7.8972 18.4088 10.6128 17.6305 12.9596C17.1106 14.5273 16.0928 15.6613 14.739 16.5429C13.922 17.075 13.1561 17.6699 12.7431 18.5889C12.55 19.0187 12.2539 19.1929 11.7967 19.2154C11.893 19.1555 6.84806 19.5642 6.84806 19.5642C6.52961 19.5864 6.28722 19.865 6.3094 20.1834L6.31276 20.2327C6.33494 20.5511 6.61356 20.7935 6.93201 20.7714C6.93201 20.7714 12.7083 20.3654 12.7843 20.3591C13.3199 20.3177 13.6671 20.0097 13.7793 19.4955C13.9467 18.7278 14.3987 18.1929 15.0437 17.7867C15.389 17.5693 15.7335 17.3491 16.0649 17.1114C18.8004 15.1483 19.8852 11.5727 18.7159 8.38945Z" fill="white"/>
</g>
<defs>
<clipPath id="clip0_2_282">
<rect width="18" height="24" fill="white" transform="translate(4.5881) rotate(11.0211)"/>
</clipPath>
</defs>
</svg>
